<svg width="392" height="388" viewBox="0 0 392 388" xmlns="http://www.w3.org/2000/svg">
  <path d="M-4.167,-8.333l0,400l400,0l4.167,-400l-404.167,-0" fill="#f2df4b"/>
  <path d="M327.628,-8.333l-81.794,425l154.167,-12.5l8.333,-416.667l-80.706,4.167Z" fill="#8651a0"/>
  <path d="M311.442,265.658l21.389,36.186l0.829,0l21.512,-36.186l25.325,0l-32.373,53.055l33.118,53.055l-25.823,0l-21.761,-36.227l-0.829,0l-21.761,36.227l-25.699,0l33.201,-53.055l-32.579,-53.055l25.449,0Z" fill="#fff"/>
  <path d="M116.205,265.637l22.175,0l0,73.987c-0.021,6.853 -1.559,12.796 -4.616,17.829c-3.057,5.032 -7.299,8.915 -12.725,11.647c-5.426,2.732 -11.721,4.098 -18.885,4.098c-6.404,0 -12.2,-1.135 -17.388,-3.404c-5.188,-2.269 -9.305,-5.72 -12.352,-10.352c-3.047,-4.632 -4.559,-10.478 -4.538,-17.538l22.341,0c0.062,2.798 0.637,5.192 1.725,7.181c1.088,1.99 2.597,3.508 4.528,4.555c1.931,1.047 4.199,1.57 6.803,1.57c2.763,0 5.103,-0.591 7.021,-1.772c1.917,-1.181 3.376,-2.931 4.378,-5.249c1.002,-2.318 1.513,-5.173 1.534,-8.565l0,-73.987Z" fill="#000"/>
  <path d="M214.398,296.144c-0.414,-4.172 -2.195,-7.419 -5.342,-9.741c-3.147,-2.321 -7.404,-3.482 -12.771,-3.482c-3.661,0 -6.758,0.516 -9.29,1.549c-2.532,1.033 -4.458,2.444 -5.777,4.233c-1.319,1.789 -1.99,3.827 -2.01,6.114c-0.042,1.9 0.371,3.559 1.238,4.979c0.867,1.42 2.081,2.639 3.643,3.658c1.561,1.019 3.361,1.895 5.399,2.627c2.038,0.732 4.207,1.357 6.507,1.875l9.533,2.28c4.629,1.036 8.877,2.421 12.746,4.155c3.869,1.734 7.226,3.864 10.072,6.389c2.846,2.525 5.055,5.497 6.627,8.917c1.572,3.42 2.368,7.337 2.389,11.751c-0.021,6.48 -1.665,12.096 -4.933,16.849c-3.267,4.753 -7.967,8.432 -14.098,11.036c-6.131,2.604 -13.521,3.907 -22.171,3.907c-8.573,0 -16.026,-1.309 -22.357,-3.927c-6.331,-2.618 -11.264,-6.509 -14.797,-11.673c-3.533,-5.164 -5.394,-11.57 -5.58,-19.217l21.72,0c0.242,3.551 1.271,6.512 3.088,8.881c1.817,2.37 4.247,4.148 7.29,5.337c3.043,1.188 6.506,1.782 10.389,1.782c3.807,0 7.112,-0.549 9.917,-1.648c2.805,-1.099 4.984,-2.629 6.539,-4.591c1.554,-1.962 2.342,-4.235 2.362,-6.819c-0.021,-2.383 -0.73,-4.385 -2.129,-6.005c-1.399,-1.62 -3.435,-3.002 -6.109,-4.145c-2.674,-1.143 -5.938,-2.181 -9.792,-3.114l-11.565,-2.86c-8.953,-2.176 -16.019,-5.584 -21.196,-10.222c-5.178,-4.639 -7.756,-10.875 -7.735,-18.709c-0.021,-6.418 1.708,-12.032 5.186,-16.844c3.478,-4.812 8.255,-8.561 14.331,-11.248c6.076,-2.687 12.986,-4.031 20.73,-4.031c7.875,0 14.752,1.347 20.631,4.041c5.879,2.694 10.464,6.444 13.756,11.248c3.292,4.805 4.983,10.361 5.073,16.668l-21.512,0Z" fill="#000"/>
</svg>
